<svg xmlns="http://www.w3.org/2000/svg" width="77" height="76" viewBox="0 0 77 76"><g fill="none" fill-rule="evenodd"><g transform="translate(8.868 7.97)"><path fill="#8a9da4" fill-rule="nonzero" d="M20.7455169,31.4495629 C19.1596268,31.4403456 17.7463713,31.5028004 16.3452805,31.3998088 C15.1898846,31.3148757 14.058768,30.9162794 14.2022566,29.4463081 C14.3327978,28.109021 15.3685217,28.1592125 16.426371,28.2204721 C17.8910912,28.3052871 19.3678279,28.1849783 20.8321978,28.2728342 C22.7242566,28.3863327 24.3906537,28.1869309 25.2277809,26.1467971 C25.3332404,25.8897816 25.6197074,25.5935816 25.8758026,25.5295846 C28.1633419,24.9579018 28.1874474,23.2614636 28.122586,21.3803441 C28.0234938,18.5061379 28.083536,15.6266893 28.0556551,12.7496614 C28.0460173,11.75485 28.1671956,10.7988423 29.3901596,10.7427662 C30.6570316,10.6846732 30.8070279,11.6503809 30.8069493,12.6434335 C30.8066746,16.0720132 30.838443,19.5009743 30.7935081,22.9289426 C30.7798985,23.9671548 31.080811,24.5855423 32.0666467,25.0797868 C34.1464085,26.1224783 35.2626504,28.4183761 34.8572996,30.7549401 C34.4572949,33.060661 32.7923757,34.2718217 30.7205463,34.9808449 C28.9647143,35.5817213 26.3034188,34.7860879 25.2297048,33.0134934 C24.1232294,31.1868088 22.5401441,31.4526088 20.7455169,31.4495629"/><circle cx="29.5" cy="29.5" r="4.5" fill="#FFF" stroke="#8a9da4" stroke-width="2"/><path fill="#8a9da4" fill-rule="nonzero" d="M50.3226151 10.6115629C50.2560768 11.187271 50.0369673 11.5336371 49.7289923 11.8457324 49.093329 12.4899114 48.3643574 12.989014 47.4909768 12.4421353 46.8955026 12.069271 46.2727923 11.4905 46.6847908 10.6443246 47.1970824 9.59213824 47.8153886 8.60707426 49.248475 8.74922757 50.3679371 8.86027463 50.3623386 9.65774007 50.3226151 10.6115629ZM56.4970055 31.3404456C55.3501842 31.0407224 54.1889287 30.8055408 54.4205985 29.3984618 54.6291055 28.1320776 55.6995938 28.1416143 56.713675 28.1695625 57.7951305 28.1993676 58.4256662 28.6572717 58.4524309 29.8059386 58.4821404 31.0808107 57.6063254 31.2597085 56.4970055 31.3404456ZM8.55748088 49.3387596C8.57826801 48.9463787 8.5601989 48.6919158 8.63519669 48.4687279 9.0380511 47.2698246 9.91853934 46.6490107 11.1339721 46.911221 12.0102669 47.1002669 12.3256864 47.9147724 12.0749794 48.7791713 11.7177526 50.0108588 10.8162136 50.7193993 9.55984007 50.7789816 8.81674265 50.8142228 8.63997353 50.1234482 8.55748088 49.3387596ZM48.4161978 50.409646C47.9923625 50.1547735 47.5776768 50.0402544 47.397511 49.769607 46.8584662 48.9598592 46.260075 48.0197438 47.2001956 47.170682 48.0395077 46.4126621 48.8612831 46.8854324 49.6090088 47.538043 50.5234423 48.3361673 50.7230125 49.2565246 50.0949114 50.268407 49.7178287 50.8758919 49.1251761 50.9359283 48.4161978 50.409646ZM8.86105221 11.5045022C8.45394522 10.4065313 8.24383125 9.43098713 9.32334007 8.7930125 9.99924007 8.39356912 10.5595404 8.67413162 11.0954129 9.23066507 12.003625 10.1738908 12.5290827 11.2874206 11.5501165 12.2858588 10.5972077 13.2577232 9.67037941 12.4541096 8.86105221 11.5045022ZM1.0883989 28.4846397C1.61422978 28.359871 2.03527132 28.2413463 2.44969596 28.2611603 3.35520147 28.3044625 4.13628603 28.6009654 4.41867169 29.5906665 4.64215956 30.3739526 4.11691213 30.6771313 3.54052831 30.9672504 2.50825441 31.4868515 1.63504926 31.1845085.878075735 30.4397338.228954779 29.8010636.291611029 29.1469217 1.0883989 28.4846397ZM30.5729121 55.1962382C30.696654 56.0392246 30.8010647 56.7633217 30.7516529 57.4767596 30.7005136 58.215246 30.2023537 58.7528434 29.4753397 58.7917643 28.7195974 58.8322283 28.1929055 58.2433511 28.1200338 57.5638357 28.0221026 56.6506199 27.6627132 55.6225533 28.5873901 54.8546658 29.3017651 54.2614132 29.9151235 54.460804 30.5729121 55.1962382ZM28.356786 4.21399301C28.206246 3.42310257 28.048121 2.76421471 28.0610463 2.10869816 28.0824085 1.02513897 29.1671232.423519118 30.0979092 1.01208346 31.3736452 1.81876985 30.9246327 3.14677831 30.589304 4.13145551 30.207161 5.2535989 29.2452629 5.16346544 28.356786 4.21399301Z"/></g><ellipse cx="38.5" cy="38" stroke="#8a9da4" stroke-width="3" rx="37" ry="36.5"/></g></svg>